<svg width="40" height="40" viewBox="0 0 40 40" fill="none" xmlns="http://www.w3.org/2000/svg">
<mask id="path-1-inside-1_116_33" fill="white">
<path fill-rule="evenodd" clip-rule="evenodd" d="M5.85786 14.1421L0 20L5.85786 25.8579V34.1419H14.1419L20 40L25.8581 34.1419H34.1421V25.8579L40 20L34.1421 14.1421V5.85764H25.8576L20 0L14.1424 5.85764H5.85786V14.1421Z"/>
</mask>
<path d="M0 20L-2.12132 17.8787L-4.24264 20L-2.12132 22.1213L0 20ZM5.85786 14.1421L7.97918 16.2635L8.85786 15.3848V14.1421H5.85786ZM5.85786 25.8579H8.85786V24.6152L7.97918 23.7365L5.85786 25.8579ZM5.85786 34.1419H2.85786V37.1419H5.85786V34.1419ZM14.1419 34.1419L16.2632 32.0206L15.3846 31.1419H14.1419V34.1419ZM20 40L17.8787 42.1213L20 44.2426L22.1213 42.1213L20 40ZM25.8581 34.1419V31.1419H24.6154L23.7368 32.0206L25.8581 34.1419ZM34.1421 34.1419V37.1419H37.1421V34.1419H34.1421ZM34.1421 25.8579L32.0208 23.7366L31.1421 24.6152V25.8579H34.1421ZM40 20L42.1213 22.1213L44.2426 20L42.1213 17.8787L40 20ZM34.1421 14.1421H31.1421V15.3848L32.0208 16.2634L34.1421 14.1421ZM34.1421 5.85764H37.1421V2.85764H34.1421V5.85764ZM25.8576 5.85764L23.7363 7.97896L24.615 8.85764H25.8576V5.85764ZM20 0L22.1213 -2.12132L20 -4.24264L17.8787 -2.12132L20 0ZM14.1424 5.85764V8.85764H15.385L16.2637 7.97896L14.1424 5.85764ZM5.85786 5.85764V2.85764H2.85786V5.85764H5.85786ZM2.12132 22.1213L7.97918 16.2635L3.73654 12.0208L-2.12132 17.8787L2.12132 22.1213ZM7.97918 23.7365L2.12132 17.8787L-2.12132 22.1213L3.73654 27.9792L7.97918 23.7365ZM8.85786 34.1419V25.8579H2.85786V34.1419H8.85786ZM14.1419 31.1419H5.85786V37.1419H14.1419V31.1419ZM22.1213 37.8787L16.2632 32.0206L12.0206 36.2632L17.8787 42.1213L22.1213 37.8787ZM23.7368 32.0206L17.8787 37.8787L22.1213 42.1213L27.9794 36.2632L23.7368 32.0206ZM34.1421 31.1419H25.8581V37.1419H34.1421V31.1419ZM31.1421 25.8579V34.1419H37.1421V25.8579H31.1421ZM37.8787 17.8787L32.0208 23.7366L36.2634 27.9792L42.1213 22.1213L37.8787 17.8787ZM32.0208 16.2634L37.8787 22.1213L42.1213 17.8787L36.2634 12.0208L32.0208 16.2634ZM31.1421 5.85764V14.1421H37.1421V5.85764H31.1421ZM25.8576 8.85764H34.1421V2.85764H25.8576V8.85764ZM17.8787 2.12132L23.7363 7.97896L27.979 3.73632L22.1213 -2.12132L17.8787 2.12132ZM16.2637 7.97896L22.1213 2.12132L17.8787 -2.12132L12.021 3.73632L16.2637 7.97896ZM5.85786 8.85764H14.1424V2.85764H5.85786V8.85764ZM8.85786 14.1421V5.85764H2.85786V14.1421H8.85786Z" fill="#31b635" mask="url(#path-1-inside-1_116_33)"/>
</svg>
