<svg id="svg" version="1.1"
  xmlns="http://www.w3.org/2000/svg"
  xmlns:xlink="http://www.w3.org/1999/xlink" width="400" height="400" viewBox="0, 0, 400,400">
  <g id="svgg">
    <path id="path0" d="M188.456 48.385 C 185.539 49.105,185.822 40.095,185.600 139.114 C 185.490 188.111,185.254 227.975,185.076 227.700 C 184.898 227.424,183.958 227.200,182.976 227.200 L 181.200 227.200 181.200 225.390 C 181.200 223.447,180.444 222.800,178.174 222.800 C 177.309 222.800,177.200 222.626,177.200 221.249 C 177.200 219.234,176.482 218.648,174.436 218.994 L 172.844 219.263 172.722 217.131 L 172.600 215.000 170.700 214.878 L 168.800 214.756 168.800 213.027 C 168.800 210.842,168.114 210.226,165.996 210.510 L 164.400 210.724 164.400 208.562 L 164.400 206.400 162.400 206.400 L 160.400 206.400 160.400 204.614 C 160.400 202.612,159.751 202.000,157.626 202.000 C 156.497 202.000,156.400 201.892,156.400 200.633 C 156.400 198.305,156.117 198.000,153.957 198.000 L 152.000 198.000 152.000 196.052 L 152.000 194.103 150.003 193.838 C 148.040 193.578,148.001 193.545,147.749 191.972 C 147.387 189.707,147.195 189.667,137.080 189.737 C 127.087 189.806,127.218 189.773,127.206 192.257 C 127.199 193.649,126.677 194.000,124.612 194.000 C 122.877 194.000,122.877 193.996,122.959 207.322 C 123.031 219.188,122.935 218.783,125.678 218.794 L 127.156 218.800 127.278 220.700 L 127.400 222.600 129.300 222.722 L 131.200 222.844 131.200 224.608 C 131.200 226.627,131.852 227.200,134.152 227.200 C 135.543 227.200,135.557 227.217,135.678 229.100 L 135.800 231.000 137.901 231.121 L 140.003 231.242 139.741 232.882 C 139.432 234.813,140.153 235.600,142.233 235.600 C 143.445 235.600,143.532 235.701,143.859 237.500 L 144.204 239.400 146.081 239.521 L 147.958 239.642 148.079 241.521 L 148.200 243.400 150.100 243.522 L 152.000 243.644 152.000 245.193 C 152.000 247.169,152.831 248.000,154.807 248.000 L 156.356 248.000 156.478 249.900 L 156.600 251.800 158.659 251.919 L 160.719 252.039 160.498 253.680 C 160.232 255.665,160.977 256.400,163.255 256.400 L 164.756 256.400 164.878 258.300 L 165.000 260.200 167.095 260.321 L 169.190 260.441 169.095 262.321 L 169.000 264.200 170.900 264.322 C 172.783 264.443,172.800 264.457,172.800 265.848 C 172.800 268.148,173.373 268.800,175.392 268.800 L 177.156 268.800 177.278 270.700 L 177.400 272.600 179.409 272.718 L 181.418 272.835 181.260 274.488 C 181.070 276.480,181.812 277.200,184.055 277.200 L 185.556 277.200 185.678 279.100 L 185.800 281.000 187.700 281.122 L 189.600 281.244 189.606 282.722 C 189.618 285.477,189.318 285.400,200.000 285.400 C 210.682 285.400,210.382 285.477,210.394 282.722 L 210.400 281.244 212.300 281.122 L 214.200 281.000 214.322 279.100 L 214.444 277.200 216.379 277.200 C 218.549 277.200,218.800 276.906,218.800 274.367 L 218.800 272.800 220.800 272.800 L 222.800 272.800 222.800 270.800 L 222.800 268.800 224.367 268.800 C 226.906 268.800,227.200 268.549,227.200 266.379 L 227.200 264.444 229.100 264.322 L 231.000 264.200 231.122 262.300 L 231.244 260.400 232.942 260.400 C 235.036 260.400,235.600 259.874,235.600 257.920 C 235.600 256.427,235.627 256.400,237.120 256.400 C 239.078 256.400,239.600 255.836,239.600 253.720 L 239.600 252.000 241.600 252.000 L 243.600 252.000 243.600 250.000 L 243.600 248.000 245.320 248.000 C 247.481 248.000,248.000 247.481,248.000 245.320 L 248.000 243.600 250.000 243.600 L 252.000 243.600 252.000 241.600 L 252.000 239.600 253.720 239.600 C 255.836 239.600,256.400 239.078,256.400 237.120 C 256.400 235.627,256.427 235.600,257.920 235.600 C 259.874 235.600,260.400 235.036,260.400 232.942 L 260.400 231.244 262.300 231.122 L 264.200 231.000 264.322 229.100 L 264.444 227.200 266.142 227.200 C 268.281 227.200,268.800 226.677,268.800 224.520 L 268.800 222.800 270.800 222.800 L 272.800 222.800 272.800 220.800 L 272.800 218.800 274.371 218.800 C 277.221 218.800,277.201 218.886,277.195 206.671 C 277.188 194.002,277.188 194.000,275.386 194.000 C 273.323 194.000,272.801 193.649,272.794 192.257 C 272.782 189.773,272.913 189.806,262.920 189.737 C 253.362 189.670,252.400 189.821,252.400 191.381 C 252.400 193.160,251.990 193.574,249.960 193.843 L 248.000 194.103 248.000 196.052 L 248.000 198.000 246.054 198.000 L 244.109 198.000 243.856 199.841 C 243.718 200.854,243.680 201.807,243.774 201.958 C 243.867 202.109,243.347 202.163,242.617 202.078 C 240.321 201.810,239.461 202.576,239.743 204.640 L 239.985 206.400 237.792 206.400 L 235.600 206.400 235.600 208.551 L 235.600 210.702 233.884 210.508 C 231.726 210.265,231.054 210.950,231.266 213.175 L 231.418 214.765 229.409 214.882 L 227.400 215.000 227.279 217.090 L 227.159 219.179 225.390 218.937 C 223.473 218.674,222.800 219.424,222.800 221.826 C 222.800 222.591,222.591 222.800,221.826 222.800 C 219.424 222.800,218.674 223.473,218.937 225.390 L 219.179 227.159 217.090 227.279 L 215.000 227.400 214.763 229.400 C 214.632 230.500,214.495 191.170,214.458 142.000 C 214.387 47.044,214.436 49.905,212.862 48.872 C 211.719 48.123,191.181 47.713,188.456 48.385 M43.994 237.100 C 43.986 239.076,43.697 239.429,41.850 239.721 C 40.998 239.856,40.188 240.078,40.050 240.216 C 39.612 240.655,39.590 312.835,40.029 313.654 C 40.315 314.189,40.876 314.400,42.014 314.400 L 43.600 314.400 43.603 316.500 C 43.605 317.655,43.720 319.545,43.859 320.700 L 44.111 322.800 46.008 322.800 L 47.904 322.800 48.076 325.100 C 48.360 328.912,50.171 331.117,53.069 331.181 C 54.132 331.204,56.400 333.389,56.400 334.388 C 56.400 335.241,57.163 335.600,58.976 335.600 C 60.192 335.600,60.312 335.721,60.643 337.282 C 60.920 338.586,61.225 339.027,62.000 339.243 C 63.307 339.606,336.693 339.606,338.000 339.243 C 338.772 339.028,339.080 338.586,339.353 337.302 C 339.699 335.668,339.737 335.637,341.553 335.520 C 343.118 335.418,343.419 335.263,343.527 334.503 C 343.698 333.303,345.847 331.205,346.931 331.181 C 349.863 331.116,351.948 328.523,351.981 324.900 L 352.000 322.800 353.957 322.800 C 356.344 322.800,356.400 322.689,356.400 317.967 L 356.400 314.400 358.010 314.400 C 359.377 314.400,359.680 314.242,360.016 313.358 C 360.462 312.186,360.380 240.647,359.933 240.200 C 359.786 240.053,358.931 239.834,358.033 239.714 C 356.596 239.521,356.399 239.369,356.395 238.447 C 356.392 237.871,356.281 236.995,356.148 236.500 L 355.907 235.600 343.761 235.600 L 331.615 235.600 331.363 236.605 C 331.224 237.158,331.182 238.103,331.270 238.705 C 331.423 239.753,331.356 239.800,329.693 239.811 C 327.096 239.828,327.213 238.334,327.206 271.700 L 327.200 302.400 325.680 302.400 C 323.778 302.400,323.200 302.964,323.200 304.821 L 323.200 306.281 319.940 306.533 C 316.352 306.810,315.437 307.313,315.056 309.220 L 314.820 310.400 200.000 310.400 L 85.180 310.400 84.944 309.220 C 84.563 307.313,83.648 306.810,80.060 306.533 L 76.800 306.281 76.800 304.821 C 76.800 302.964,76.222 302.400,74.320 302.400 L 72.800 302.400 72.794 271.700 C 72.787 238.614,72.892 240.043,70.458 239.717 C 68.895 239.507,68.800 239.419,68.800 238.180 C 68.800 235.442,69.574 235.600,56.157 235.600 L 44.000 235.600 43.994 237.100 " stroke="none" fill="#34b434" fill-rule="evenodd"></path>
    <path id="path1" d="M122.928 202.800 C 122.928 204.230,123.001 204.815,123.089 204.100 C 123.178 203.385,123.178 202.215,123.089 201.500 C 123.001 200.785,122.928 201.370,122.928 202.800 M122.928 210.000 C 122.928 211.430,123.001 212.015,123.089 211.300 C 123.178 210.585,123.178 209.415,123.089 208.700 C 123.001 207.985,122.928 208.570,122.928 210.000 M39.701 307.400 C 39.705 308.280,39.787 308.593,39.883 308.095 C 39.979 307.598,39.975 306.878,39.875 306.495 C 39.775 306.113,39.696 306.520,39.701 307.400 " stroke="none" fill="#38b434" fill-rule="evenodd"></path>
    <path id="path2" d="M122.928 202.800 C 122.928 204.230,123.001 204.815,123.089 204.100 C 123.178 203.385,123.178 202.215,123.089 201.500 C 123.001 200.785,122.928 201.370,122.928 202.800 M122.928 210.000 C 122.928 211.430,123.001 212.015,123.089 211.300 C 123.178 210.585,123.178 209.415,123.089 208.700 C 123.001 207.985,122.928 208.570,122.928 210.000 M39.701 307.400 C 39.705 308.280,39.787 308.593,39.883 308.095 C 39.979 307.598,39.975 306.878,39.875 306.495 C 39.775 306.113,39.696 306.520,39.701 307.400 " stroke="none" fill="#38b434" fill-rule="evenodd"></path>
    <path id="path3" d="M122.928 202.800 C 122.928 204.230,123.001 204.815,123.089 204.100 C 123.178 203.385,123.178 202.215,123.089 201.500 C 123.001 200.785,122.928 201.370,122.928 202.800 M122.928 210.000 C 122.928 211.430,123.001 212.015,123.089 211.300 C 123.178 210.585,123.178 209.415,123.089 208.700 C 123.001 207.985,122.928 208.570,122.928 210.000 M39.701 307.400 C 39.705 308.280,39.787 308.593,39.883 308.095 C 39.979 307.598,39.975 306.878,39.875 306.495 C 39.775 306.113,39.696 306.520,39.701 307.400 " stroke="none" fill="#38b434" fill-rule="evenodd"></path>
    <path id="path4" d="M122.928 202.800 C 122.928 204.230,123.001 204.815,123.089 204.100 C 123.178 203.385,123.178 202.215,123.089 201.500 C 123.001 200.785,122.928 201.370,122.928 202.800 M122.928 210.000 C 122.928 211.430,123.001 212.015,123.089 211.300 C 123.178 210.585,123.178 209.415,123.089 208.700 C 123.001 207.985,122.928 208.570,122.928 210.000 M39.701 307.400 C 39.705 308.280,39.787 308.593,39.883 308.095 C 39.979 307.598,39.975 306.878,39.875 306.495 C 39.775 306.113,39.696 306.520,39.701 307.400 " stroke="none" fill="#38b434" fill-rule="evenodd"></path>
  </g>
</svg>